<svg xmlns="http://www.w3.org/2000/svg" width="1080" height="1440" viewBox="0 0 1080 1440" role="img" aria-label="2026年7-8月电信企业形象科普多格漫画海报">
  <defs>
    <linearGradient id="bg" x1="0" y1="0" x2="1" y2="1"><stop offset="0" stop-color="#eaf6ff"/><stop offset="0.55" stop-color="#f7fbff"/><stop offset="1" stop-color="#fff4e5"/></linearGradient>
    <linearGradient id="blue" x1="0" y1="0" x2="1" y2="1"><stop offset="0" stop-color="#0076ff"/><stop offset="1" stop-color="#00b7ff"/></linearGradient>
    <style>
      .cn{font-family:'Noto Sans CJK SC','Source Han Sans SC','Microsoft YaHei',Arial,sans-serif}.title{font-size:58px;font-weight:900;fill:#073b7a}.sub{font-size:27px;font-weight:700;fill:#285579}.small{font-size:22px;fill:#54708a}.panel{fill:#fff;stroke:#bbdbf8;stroke-width:4}.tag{fill:#005BAC;font-size:25px;font-weight:800}.h{fill:#06376e;font-size:33px;font-weight:900}.p{fill:#31536f;font-size:25px;font-weight:700}.bubble{fill:#f2f9ff;stroke:#99cffb;stroke-width:3}.white{fill:#fff}.orange{fill:#ff9f1c}.red{fill:#ff4d5f}.green{fill:#24b47e}.blue{fill:#005BAC}
    </style>
  </defs>
  <rect width="1080" height="1440" fill="url(#bg)"/>
  <g transform="translate(44 36)">
    <g fill="#005BAC"><path d="M39 7c13 0 23.5 10.5 23.5 23.5S52 54 39 54 15.5 43.5 15.5 30.5 26 7 39 7Zm0 8c-8.6 0-15.5 6.9-15.5 15.5S30.4 46 39 46s15.5-6.9 15.5-15.5S47.6 15 39 15Z"/><path d="M7 30.3C14.4 17.2 25.6 10.3 39 10.3s24.6 6.9 32 20c-7.4 13.3-18.6 20.2-32 20.2s-24.6-6.9-32-20.2Zm14.8 0c4.8 7 10.5 10.4 17.2 10.4s12.4-3.4 17.2-10.4C51.4 23.4 45.7 20 39 20s-12.4 3.4-17.2 10.3Z" opacity=".92"/></g>
    <text x="86" y="28" class="cn" font-size="24" font-weight="800" fill="#005BAC">中国电信</text><text x="86" y="51" font-family="Arial" font-size="14" font-weight="700" letter-spacing="1.1" fill="#005BAC">CHINA TELECOM</text>
  </g>
  <text x="540" y="126" text-anchor="middle" class="cn title">夏日不断线 安全更在线</text>
  <text x="540" y="172" text-anchor="middle" class="cn sub">2026年7-8月全媒体热点 × 电信科普多格漫画</text>
  <g transform="translate(70 230)">
    <rect class="panel" width="440" height="310" rx="34"/><text x="30" y="55" class="cn tag">7·1 建党节</text><text x="30" y="103" class="cn h">红色通信守初心</text><text x="30" y="145" class="cn p">云网护航城市运行，</text><text x="30" y="181" class="cn p">让服务跑在需要前。</text><circle cx="335" cy="178" r="72" fill="url(#blue)"/><path d="M335 97v162M254 178h162M278 126c38 24 76 24 114 0M278 230c38-24 76-24 114 0" stroke="#fff" stroke-width="10" fill="none" stroke-linecap="round"/><path d="M91 236h170" stroke="#ff4d5f" stroke-width="18" stroke-linecap="round"/><circle cx="97" cy="236" r="28" fill="#ff4d5f"/><polygon points="82,221 116,236 82,251" fill="#ffefef"/></g>
  <g transform="translate(570 230)"><rect class="panel" width="440" height="310" rx="34"/><text x="30" y="55" class="cn tag">7·17 世界表情符号日</text><text x="30" y="103" class="cn h">表情包也要防钓鱼</text><text x="30" y="145" class="cn p">陌生链接先核验，</text><text x="30" y="181" class="cn p">反诈提醒随手转。</text><rect x="278" y="100" width="118" height="174" rx="26" fill="#06376e"/><rect x="291" y="119" width="92" height="132" rx="14" fill="#dff4ff"/><circle cx="319" cy="170" r="10" fill="#06376e"/><circle cx="356" cy="170" r="10" fill="#06376e"/><path d="M314 207q25 21 50 0" stroke="#06376e" stroke-width="8" fill="none" stroke-linecap="round"/><path d="M255 87l36 24M406 82l-32 31" stroke="#ff9f1c" stroke-width="10" stroke-linecap="round"/></g>
  <g transform="translate(70 590)"><rect class="panel" width="440" height="310" rx="34"/><text x="30" y="55" class="cn tag">7·30 国际友谊日</text><text x="30" y="103" class="cn h">千里同屏像身边</text><text x="30" y="145" class="cn p">5G视频问候好友，</text><text x="30" y="181" class="cn p">距离被信号缩短。</text><path d="M285 90h110v150H285z" fill="#e6f6ff" stroke="#005BAC" stroke-width="8"/><path d="M315 125h50M315 160h42M315 195h60" stroke="#005BAC" stroke-width="10" stroke-linecap="round"/><circle cx="222" cy="197" r="52" fill="#ffcf66"/><circle cx="222" cy="180" r="18" fill="#06376e"/><path d="M184 238q38-39 76 0" fill="#06376e"/></g>
  <g transform="translate(570 590)"><rect class="panel" width="440" height="310" rx="34"/><text x="30" y="55" class="cn tag">8·1 建军节</text><text x="30" y="103" class="cn h">应急通信守护平安</text><text x="30" y="145" class="cn p">高温汛期不断联，</text><text x="30" y="181" class="cn p">关键时刻顶得上。</text><rect x="270" y="158" width="132" height="72" rx="16" fill="#24b47e"/><circle cx="304" cy="230" r="20" fill="#06376e"/><circle cx="370" cy="230" r="20" fill="#06376e"/><path d="M300 158v-44h72v44" fill="none" stroke="#24b47e" stroke-width="14" stroke-linejoin="round"/><path d="M336 74v65M306 104h60" stroke="#ff4d5f" stroke-width="12" stroke-linecap="round"/></g>
  <g transform="translate(70 950)"><rect class="panel" width="440" height="310" rx="34"/><text x="30" y="55" class="cn tag">8·8 全民健身日</text><text x="30" y="103" class="cn h">智慧运动有“数”</text><text x="30" y="145" class="cn p">运动手环连云端，</text><text x="30" y="181" class="cn p">健康数据更安心。</text><path d="M315 91c-44 18-67 53-70 104" stroke="#005BAC" stroke-width="16" fill="none" stroke-linecap="round"/><circle cx="335" cy="91" r="25" fill="#ff9f1c"/><path d="M296 152l62 42M259 233l53-55M363 238l-35-60" stroke="#06376e" stroke-width="14" stroke-linecap="round"/><path d="M238 96h-54" stroke="#24b47e" stroke-width="10" stroke-linecap="round"/></g>
  <g transform="translate(570 950)"><rect class="panel" width="440" height="310" rx="34"/><text x="30" y="55" class="cn tag">8·20 七夕</text><text x="30" y="103" class="cn h">爱意加密再发送</text><text x="30" y="145" class="cn p">视频、相册、定位，</text><text x="30" y="181" class="cn p">隐私保护先开启。</text><path d="M335 112c34-54 112 4 0 96-112-92-34-150 0-96z" fill="#ff4d5f"/><rect x="280" y="207" width="108" height="70" rx="14" fill="#005BAC"/><path d="M302 207v-30c0-43 64-43 64 0v30" fill="none" stroke="#005BAC" stroke-width="14"/><circle cx="334" cy="242" r="9" fill="#fff"/></g>
  <g transform="translate(70 1300)"><rect x="0" y="0" width="720" height="74" rx="24" fill="#e8f5ff" stroke="#b7dcfb" stroke-width="3"/><text x="28" y="47" class="cn small">小贴士：不点陌生链接、不泄露验证码、公共Wi‑Fi少操作敏感账户。</text></g>
  <text x="1010" y="1394" text-anchor="end" class="cn" font-size="18" fill="#6b7d90">AI辅助生成，图中出现过多的文字，不要有太小的文字，排版美观。</text>
</svg>
